<svg width="200" height="57" viewBox="0 0 200 57" fill="none" xmlns="http://www.w3.org/2000/svg">
<g clip-path="url(#clip0_3_5)">
<path d="M165.39 25.052H159.022V35.5902C159.022 38.5849 160.614 39.1535 162.661 39.1535C163.381 39.1535 164.139 39.0398 164.936 38.9261L165.428 43.6645C163.76 43.9678 161.524 44.2332 160.083 44.2332C155.686 44.2332 151.782 42.7169 151.782 37.334V25.052H148.067V20.3893H151.782V15.2339L159.06 13.1869V20.3893H165.428V25.052" fill="white"/>
<path d="M145.83 43.7782H138.552V28.7669C138.552 26.5682 137.642 25.3552 135.14 25.3552C133.245 25.3552 132.032 26.265 130.667 27.3264V43.7782H123.427V20.4272H130.478V22.4742C132.828 20.8821 135.557 19.8586 138.514 19.8586C143.139 19.8586 145.83 22.7396 145.83 27.1369V43.7782Z" fill="white"/>
<path d="M108.757 0.525772C105.08 6.7426 106.672 12.3908 103.071 15.992C100.19 18.873 97.4981 18.7972 94.3518 18.7972C93.2525 18.7972 91.1297 18.873 90.2578 19.5553C89.7271 17.9253 89.4996 16.1058 89.4996 14.362C89.4996 11.4052 90.1441 8.7517 92.3048 6.62888C96.3988 2.53487 103.791 1.24601 108.757 0.56368" fill="white"/>
<path d="M69.5223 43.7782H62.2441V28.7669C62.2441 26.5682 61.2964 25.3552 58.8324 25.3552C56.9371 25.3552 55.724 26.265 54.3593 27.3264V43.7782H47.0811V20.4272H54.1319V22.4742C56.5201 20.8821 59.2115 19.8586 62.1683 19.8586C66.793 19.8586 69.4844 22.7396 69.4844 27.1369V43.7782" fill="white"/>
<path d="M45.6027 20.3893L33.9651 48.7062C32.1835 53.0656 28.5823 56.2498 23.6922 56.2498C21.2661 56.2498 19.9393 55.9086 18.3472 55.5675L19.3707 50.9049C20.6596 51.2081 21.6452 51.3218 22.5171 51.3218C25.4359 51.3218 26.9901 48.8199 28.3927 45.4462L29.0751 43.8162L20.0152 20.4651H27.8241L32.0697 32.0269C32.5625 33.4295 32.8658 34.87 33.0932 35.8556C33.3586 34.8321 33.8893 33.1641 34.3821 31.7995L38.7794 20.4272H45.5648" fill="white"/>
<path d="M19.9393 36.3105C19.9393 41.3901 15.2388 44.1952 9.6664 44.1952C6.02728 44.1952 3.1084 43.5887 -1.52588e-05 42.3378L1.97118 37.5993C3.82864 38.3575 6.48217 39.1914 8.60499 39.1914C10.2729 39.1914 12.6611 38.964 12.6611 36.917C12.6611 35.9693 12.0546 35.4765 10.9553 35.1353C9.55268 34.7184 7.42986 34.3393 6.02728 33.9602C3.07049 33.1262 0.606505 31.572 0.606505 27.2506C0.606505 22.4363 4.70052 19.4416 10.3487 19.4416C14.0637 19.4416 16.4139 19.9344 18.4988 20.541L16.6414 25.2794C15.7316 24.8624 13.1539 24.2559 11.2964 24.2559C9.28732 24.2559 7.92265 25.014 7.92265 26.2271C7.92265 26.8336 8.30173 27.5918 9.36314 27.9329C10.5004 28.312 12.3199 28.6153 13.7983 28.9564C16.9067 29.6388 19.9014 31.4204 19.9014 36.3105" fill="white"/>
<path d="M187.68 43.7783H180.819V41.9208C179.037 43.5129 176.725 44.2331 174.185 44.2331C169.826 44.2331 166.869 42.1103 166.869 37.7131C166.869 29.9799 174.602 28.7669 180.629 28.729V28.1225C180.629 26.1892 179.909 24.8245 176.459 24.8245C174.147 24.8245 171.494 25.9617 169.75 27.0231L167.968 22.7017C171.039 21.0337 174.867 19.8207 178.506 19.8207C184.079 19.8207 187.68 22.4742 187.68 27.1369V43.7024M180.629 37.4856V33.1642C177.255 33.0883 174.109 33.4295 174.109 36.6516C174.109 38.6228 175.777 39.2673 177.066 39.2673C178.582 39.2673 179.719 38.5091 180.629 37.4856Z" fill="white"/>
<path d="M120.243 31.2309C120.243 31.989 120.243 32.7851 120.167 33.619H104.663C104.738 37.0307 106.406 39.0398 111.372 39.0398C113.571 39.0398 116.224 38.0542 117.324 37.2582L119.219 41.5796C116.035 43.3234 112.585 44.2331 108.757 44.2331C101.478 44.2331 96.9674 39.5705 96.9674 32.1027C96.9674 24.635 102.919 19.8207 109.287 19.8207C117.248 19.8207 120.167 24.4833 120.167 31.193M112.699 28.9185C112.813 26.3408 111.524 24.7487 108.984 24.7487C106.444 24.7487 105.08 26.5303 104.663 28.9185H112.661H112.699Z" fill="white"/>
<path d="M97.0432 46.6592C97.0432 53.4826 90.2578 56.6289 83.5481 56.6668C77.6346 56.6668 71.9484 54.9989 71.9484 49.3127C71.9484 46.6592 74.2987 44.9155 75.7013 43.9678C74.9052 43.5129 74.185 43.1717 73.5784 42.4515C72.934 41.6933 72.4033 40.6319 72.4033 38.8124C72.4033 36.5379 74.4124 34.4151 76.8385 33.0504C75.4738 32.3302 73.6922 31.1929 73.6922 27.3643C73.6922 22.3984 78.4306 19.7449 84.5716 19.7449C89.8029 19.7449 94.8446 20.9958 94.8446 27.1368C94.8446 33.2779 89.348 35.1732 83.7377 35.1732C82.6763 35.1732 81.7665 35.0216 80.8567 34.8321C80.2502 35.1353 79.075 35.9314 79.075 36.8033C79.075 38.5849 81.539 38.8503 82.6383 38.8503H88.4003C93.7452 38.8503 96.9674 41.428 96.9674 46.5834M87.7938 27.478C87.7938 25.5068 86.6944 23.9147 84.3063 23.9147C82.1076 23.9147 80.743 25.7722 80.743 27.478C80.743 29.4492 81.956 31.0413 84.1546 31.0413C86.5807 31.0413 87.7938 29.4492 87.7938 27.478ZM89.727 47.569C89.727 45.6736 88.2108 44.9534 86.6565 44.9534H80.2881C79.3025 45.522 77.8241 46.735 77.8241 48.3271C77.8241 50.3741 80.5913 51.7388 83.8514 51.7388C87.1114 51.7388 89.765 50.1846 89.765 47.569H89.727Z" fill="white"/>
<path d="M195.906 35.8177C198.067 35.8177 200 37.3719 200 39.798C200 42.224 198.067 43.8162 195.906 43.8162C193.745 43.8162 191.812 42.2619 191.812 39.798C191.812 37.334 193.745 35.8177 195.906 35.8177ZM195.906 42.9443C197.574 42.9443 198.901 41.6175 198.901 39.798C198.901 37.9784 197.536 36.6516 195.906 36.6516C194.276 36.6516 192.911 37.9784 192.911 39.798C192.911 41.6175 194.238 42.9443 195.906 42.9443ZM194.314 37.5614H195.982C197.119 37.5614 197.726 37.9026 197.726 38.8882C197.726 39.7221 197.195 40.0254 196.55 40.1012L197.726 42.0345H196.816L195.716 40.1391H195.148V42.0345H194.276V37.5614H194.314ZM195.186 39.4189H195.982C196.475 39.4189 196.854 39.3431 196.854 38.8124C196.854 38.3196 196.361 38.2438 195.944 38.2438H195.186V39.4189Z" fill="white"/>
</g>
<defs>
<clipPath id="clip0_3_5">
<rect width="200" height="56.141" fill="white" transform="translate(0 0.525681)"/>
</clipPath>
</defs>
</svg>
